<?xml version="1.0" encoding="UTF-8"?>
<svg width="485px" height="329px" viewBox="0 0 485 329" version="1.1" xmlns="http://www.w3.org/2000/svg" xmlns:xlink="http://www.w3.org/1999/xlink">
    <!-- Generator: Sketch 64 (93537) - https://sketch.com -->
    <title>logo</title>
    <desc>Created with Sketch.</desc>
    <defs>
        <linearGradient x1="50%" y1="-33.8097473%" x2="36.3575968%" y2="86.6362265%" id="linearGradient-1">
            <stop stop-color="#6B6B6B" offset="0%"></stop>
            <stop stop-color="#1B1B1B" offset="100%"></stop>
        </linearGradient>
        <linearGradient x1="26.8629436%" y1="35.2757739%" x2="68.161623%" y2="60.114136%" id="linearGradient-2">
            <stop stop-color="#4C4C4C" offset="0%"></stop>
            <stop stop-color="#000000" offset="100%"></stop>
        </linearGradient>
        <path d="M243.818912,5.58398437 C276.469682,5.58398437 357.644531,5.58398437 357.644531,5.58398437 C325.094114,34.3193 284.334334,269.017578 238.529297,315.429688 C187.78246,315.429688 179.862702,311.707031 129.212891,311.707031 C166.10629,274.135506 217.341315,30.0455491 243.818912,5.58398437 Z" id="path-3"></path>
        <filter x="-7.2%" y="-5.0%" width="113.6%" height="110.0%" filterUnits="objectBoundingBox" id="filter-4">
            <feOffset dx="0" dy="0" in="SourceAlpha" result="shadowOffsetOuter1"></feOffset>
            <feGaussianBlur stdDeviation="2" in="shadowOffsetOuter1" result="shadowBlurOuter1"></feGaussianBlur>
            <feColorMatrix values="0 0 0 0 0   0 0 0 0 0   0 0 0 0 0  0 0 0 0.22 0" type="matrix" in="shadowBlurOuter1" result="shadowMatrixOuter1"></feColorMatrix>
            <feOffset dx="-1" dy="0" in="SourceAlpha" result="shadowOffsetOuter2"></feOffset>
            <feGaussianBlur stdDeviation="5" in="shadowOffsetOuter2" result="shadowBlurOuter2"></feGaussianBlur>
            <feColorMatrix values="0 0 0 0 0   0 0 0 0 0   0 0 0 0 0  0 0 0 0.15 0" type="matrix" in="shadowBlurOuter2" result="shadowMatrixOuter2"></feColorMatrix>
            <feMerge>
                <feMergeNode in="shadowMatrixOuter1"></feMergeNode>
                <feMergeNode in="shadowMatrixOuter2"></feMergeNode>
            </feMerge>
        </filter>
        <linearGradient x1="50%" y1="43.7139321%" x2="35.1507612%" y2="100%" id="linearGradient-5">
            <stop stop-color="#FFD700" offset="56.2763936%"></stop>
            <stop stop-color="#DAA520" offset="100%"></stop>
        </linearGradient>
        <linearGradient x1="66.5151295%" y1="0%" x2="35.9397111%" y2="100%" id="linearGradient-6">
            <stop stop-color="#DAA520" offset="0%"></stop>
            <stop stop-color="#FFD700" offset="51.4674831%"></stop>
            <stop stop-color="#DAA520" offset="100%"></stop>
        </linearGradient>
    </defs>
    <g id="Page-1" stroke="none" stroke-width="1" fill="none" fill-rule="evenodd">
        <g id="Desktop-HD" transform="translate(-143.000000, -80.000000)">
            <g id="logo" transform="translate(142.136000, 0.000000)">
                <rect id="Rectangle" x="0" y="0" width="486" height="486"></rect>
                <g id="Group-2" transform="translate(1.000000, 84.000000)">
                    <path d="M363,319 C371.168573,310.510417 375.143834,271.131886 374.925781,200.864407 L462.630802,200.864407 L462.630802,123.454802 L374.47599,123.454802 L374.47599,89.6624294 L484.674735,89.6624294 L484.674735,0 L279.674735,0 C282.184547,188.154948 278.209635,294.488281 267.75,319 C304.658203,319 315.868095,319 363,319 Z" id="Path" fill="url(#linearGradient-1)" fill-rule="nonzero"></path>
                    <path d="M125.524575,0 C155.183156,0 185.674965,0 217,0 L113.377035,319 L0,319 C66.3425519,118.74958 108.184077,12.4162471 125.524575,0 Z" id="Rectangle" fill="url(#linearGradient-2)"></path>
                    <g id="shadow" transform="translate(243.428711, 160.506836) scale(-1, 1) translate(-243.428711, -160.506836) " fill="black" fill-opacity="1">
                        <use filter="url(#filter-4)" xlink:href="#path-3"></use>
                    </g>
                    <path d="M249.173403,0 C281.824173,0 363,0 363,0 C330.448605,28.7353156 267.232775,302.781951 241.525041,319 C190.778204,319 175.649812,319 125,319 C161.8934,281.428474 222.695806,24.4615647 249.173403,0 Z" id="Rectangle-Copy" fill="url(#linearGradient-5)" transform="translate(244.000000, 159.500000) scale(-1, 1) translate(-244.000000, -159.500000) "></path>
                    <path d="M249.173403,0 C281.824173,0 363,0 363,0 C330.448605,28.7353156 267.232775,302.781951 241.525041,319 C190.778204,319 175.649812,319 125,319 C161.8934,281.428474 222.695806,24.4615647 249.173403,0 Z" id="Rectangle-Copy" fill="url(#linearGradient-6)" transform="translate(244.000000, 159.500000) scale(-1, 1) translate(-244.000000, -159.500000) "></path>
                </g>
            </g>
        </g>
    </g>
</svg>