<?xml version="1.0" encoding="UTF-8"?>
<svg width="485px" height="330px" viewBox="0 0 485 330" version="1.1" xmlns="http://www.w3.org/2000/svg" xmlns:xlink="http://www.w3.org/1999/xlink">
    <!-- Generator: Sketch 64 (93537) - https://sketch.com -->
    <title>logo copy</title>
    <desc>Created with Sketch.</desc>
    <defs>
        <linearGradient x1="48.5527284%" y1="0%" x2="34.0362967%" y2="100%" id="linearGradient-1">
            <stop stop-color="#FFD700" offset="0%"></stop>
            <stop stop-color="#DAA520" offset="100%"></stop>
        </linearGradient>
        <linearGradient x1="40.3955027%" y1="100%" x2="73.1370564%" y2="1.94774687%" id="linearGradient-2">
            <stop stop-color="#FFD700" offset="0%"></stop>
            <stop stop-color="#DAA520" offset="100%"></stop>
        </linearGradient>
        <path d="M243.818912,5.81598437 C276.469682,5.81598437 357.644531,5.81598437 357.644531,5.81598437 C325.094114,34.5513 284.334334,269.249578 238.529297,315.661688 C187.78246,315.661688 179.862702,311.939031 129.212891,311.939031 C166.10629,274.367506 217.341315,30.2775491 243.818912,5.81598437 Z" id="path-3"></path>
        <filter x="-7.2%" y="-5.0%" width="113.6%" height="110.0%" filterUnits="objectBoundingBox" id="filter-4">
            <feOffset dx="0" dy="0" in="SourceAlpha" result="shadowOffsetOuter1"></feOffset>
            <feGaussianBlur stdDeviation="2" in="shadowOffsetOuter1" result="shadowBlurOuter1"></feGaussianBlur>
            <feColorMatrix values="0 0 0 0 0   0 0 0 0 0   0 0 0 0 0  0 0 0 0.22 0" type="matrix" in="shadowBlurOuter1" result="shadowMatrixOuter1"></feColorMatrix>
            <feOffset dx="-1" dy="0" in="SourceAlpha" result="shadowOffsetOuter2"></feOffset>
            <feGaussianBlur stdDeviation="5" in="shadowOffsetOuter2" result="shadowBlurOuter2"></feGaussianBlur>
            <feColorMatrix values="0 0 0 0 0   0 0 0 0 0   0 0 0 0 0  0 0 0 0.15 0" type="matrix" in="shadowBlurOuter2" result="shadowMatrixOuter2"></feColorMatrix>
            <feMerge>
                <feMergeNode in="shadowMatrixOuter1"></feMergeNode>
                <feMergeNode in="shadowMatrixOuter2"></feMergeNode>
            </feMerge>
        </filter>
        <linearGradient x1="63.9531092%" y1="0%" x2="34.5566902%" y2="100%" id="linearGradient-5">
            <stop stop-color="#1A1A1A" offset="0%"></stop>
            <stop stop-color="#3A3A3A" offset="49.5497155%"></stop>
            <stop stop-color="#000000" offset="100%"></stop>
        </linearGradient>
    </defs>
    <g id="Page-1" stroke="none" stroke-width="1" fill="none" fill-rule="evenodd">
        <g id="Desktop-HD" transform="translate(-699.000000, -79.000000)">
            <g id="logo-copy" transform="translate(698.000000, 0.000000)">
                <rect id="Rectangle" x="0" y="0" width="486" height="486"></rect>
                <g id="Group-3" transform="translate(1.000000, 83.000000)">
                    <path d="M363,319 C371.168573,310.510417 375.143834,271.131886 374.925781,200.864407 L462.630802,200.864407 L462.630802,123.454802 L374.47599,123.454802 L374.47599,89.6624294 L484.674735,89.6624294 L484.674735,0 L279.674735,0 C282.184547,188.154948 278.209635,294.488281 267.75,319 C304.658203,319 315.868095,319 363,319 Z" id="Path" fill="url(#linearGradient-1)" fill-rule="nonzero"></path>
                    <path d="M125.524575,0.232 C155.183156,0.232 185.674965,0.232 217,0.232 L113.377035,319.232 L0,319.232 C66.3425519,118.98158 108.184077,12.6482471 125.524575,0.232 Z" id="Rectangle" fill="url(#linearGradient-2)"></path>
                    <g id="shadow" transform="translate(243.428711, 160.738836) scale(-1, 1) translate(-243.428711, -160.738836) " fill="black" fill-opacity="1">
                        <use filter="url(#filter-4)" xlink:href="#path-3"></use>
                    </g>
                    <path d="M249.309403,0 C281.960173,0 363.136,0 363.136,0 C330.584605,28.7353156 267.368775,302.781951 241.661041,319 C190.914204,319 175.785812,319 125.136,319 C162.0294,281.428474 222.831806,24.4615647 249.309403,0 Z" id="Rectangle-Copy" fill="url(#linearGradient-5)" transform="translate(244.136000, 159.500000) scale(-1, 1) translate(-244.136000, -159.500000) "></path>
                </g>
            </g>
        </g>
    </g>
</svg>